<svg width="124" height="124" viewBox="0 0 124 124" fill="none" xmlns="http://www.w3.org/2000/svg">
<path d="M116.22 62.5C116.22 52.0998 113.244 41.9167 107.644 33.1531C102.043 24.3894 94.0525 17.4111 84.6144 13.0422C75.1764 8.67316 64.6853 7.09588 54.3798 8.49655C44.0744 9.89722 34.3848 14.2173 26.4552 20.9469C18.5257 27.6764 12.6871 36.5343 9.62904 46.4747C6.57094 56.4152 6.42093 67.0231 9.19675 77.0461C11.9726 87.069 17.5583 96.0884 25.2944 103.039C33.0306 109.991 42.5941 114.583 52.8558 116.274" stroke="#060022"/>
<path d="M12.8542 74.7466C15.3403 84.0247 20.4379 92.3955 27.5452 98.8705C34.6525 105.346 43.4727 109.655 52.9644 111.289C62.4561 112.923 72.223 111.814 81.1119 108.093C90.0008 104.372 97.6406 98.1941 103.129 90.2889C108.618 82.3838 111.726 73.0814 112.087 63.48C112.448 53.8786 110.046 44.3792 105.166 36.1033C100.286 27.8275 93.1304 21.1207 84.5448 16.775C75.9591 12.4292 66.3017 10.6258 56.7128 11.5778" stroke="#060022"/>
</svg>
